<svg id="Layer_1" data-name="Layer 1" xmlns="http://www.w3.org/2000/svg" viewBox="0 0 300 58.07"><defs><style>.cls-1{fill:#fff;}.cls-2{fill:#4aa39c;fill-rule:evenodd;}</style></defs><title>title-sketchy-primary-2</title><rect class="cls-1" width="300" height="58.07"/><path class="cls-2" d="M258.82,52.31c-1.06.14-2.17-.4-3.09,0C256.8,52.39,258.29,53,258.82,52.31Zm28.65.49c-.08.82.63.35.81.55-.11.66-.75-.16-1,.29,1,.93,2.6,1,3.68,1.77-.95.12-2.53-.44-3.09.74-2.23.16-3.76-1.21-5.62-1-.63-.48-1.44-2.1-2.3-1.37-.76-1.12-3.15-2-4.13-.79,0-.37,0-.6-.35-.56a2.68,2.68,0,0,1-3.55-.1c.77,0,1.23.57,1.83,0-1.75-.61-3.17-.08-4.93-.78-.4.12-.37.76-.8.85-1.08.17-.75-1.41-2-1.09-.19.71.5.32.46.83-1.82-.38-3.95.3-5-.78-.72.55-1.66,0-2.29-.39-1.23.59-2.66,1.1-3.67-.23-.88.71-2.74.31-3.55.74.18.93,1.1-.46,1.27.68-.54.23-1.36-.12-1.95.3-.42.1-.44-.3-.8-.27a21.89,21.89,0,0,1-6.88-.05,11,11,0,0,0-2.41-.53c-1.06.09-2.32.58-3.21-.24,0-.5.54-.28.45-.84-.14-.16-.41-.15-.69-.13-.63.35.49.73-.1,1.12-2.64,0-4.87.14-7.91,0-2-.12-4.27-.53-6.42-.62-2.37-.09-4.76,0-7.11-.19-1.78-.17-3.62,0-5.16-.22-2-.23-4,.31-5.84.21a22.61,22.61,0,0,0-2.3-.39c-2.32,0-5.91-.53-8.6-.31-.31,0-.72.3-1,.29a11.33,11.33,0,0,0-2.41-.11c-3.71.56-7.78-.58-11.34,0a27.89,27.89,0,0,0-8.94,0,4.18,4.18,0,0,0-2.06-.25c-.21,0-.39.42-.57.42-.57,0-1.14-.57-1.72-.54a2.69,2.69,0,0,0-1.37.58c-5.23-1-10.89.47-15.82-.22-.92-.13-1.68.47-2.52.45s-2.36-.28-3.67-.24c-1.07,0-2.12.46-3.21.46s-2.53-.25-3.78-.23c-3.68.05-7.51,1.17-11.23.14-2.06.58-5.61.81-7.22.09a7.8,7.8,0,0,1-3.78.33c-3.16-.14-6.08,1-9.39.54-7.74-1.07-15.77-.5-24.19-.82-3-.11-6.47-.73-9.05,0-.73-.41-2.08-.65-2.75,0a34.21,34.21,0,0,0-3.67-.51c-1.61,0-3.41.56-5.16.06-.42-.12-.61-.64-1-.82-1.34-.56-2.87.08-4.13-.23-.33,0-.19.6-.57.57a1,1,0,0,1-1.27-.54c-1.22.89-3.63.52-4.81-.22-1.54.85-3.67.23-5.84.35-.81-1-2.39-1.21-3.68-1.21-4.84,0-10.54.76-15.46,1-.36,0-.39-.36-.8-.27a7.17,7.17,0,0,1-3.09.46c-1,0-2.48,0-2.87-.8-1,1.53-2.31-.09-3.78,0-.48-1-1.64-1.64-1.29-3.19-.26-.62-.88-.79-1.27-1.24,0-.43.24-.63.34-1-.83-1.27-.73-3-1-4.87,0-.35-.3-.64-.35-1-.11-.67.24-1.26.21-2.09-.06-1.56-.88-3.11.19-4-.07-.86-1.14-.47-1.27-1.24s.61-.83.79-1.4c-.64-.71-1.19-1.53-2.42-1.5-.11-.59.76,0,.68-.57-.23-.52-1-.3-1.49-.54-.08-.51.4-.35.57-.56-1.61-1.9-2.63-4.53-3.73-7.07a12.82,12.82,0,0,0-.86-7.52c-.19-1,.59-1.16.21-2C1,8.36.69,9.5.28,9c-.17-.75.38-.65.56-1C.51,6.52.78,5.18.35,3.73,1.54,3.62,2,2.45,3,2.3s2.71.3,4,.37c4.53.22,9-.7,13.74-.87,2.44-.08,5-.2,7.44-.37a41.7,41.7,0,0,1,4.24-.33c14.33.47,29.71,2.07,44,2.53.34,0,.64-.26,1-.29A23.71,23.71,0,0,1,83.89,4c.45,0,.34-.6.8-.57.34.33,1.12.11,1.15.82.6-.75,2.47-.58,3.89-.61,3.4-.05,6.8.5,10.09.43,1.1,0,2.17-.23,3.32-.18,3.09.14,6.57.39,8.71-.24,2.69.87,5.71-.29,8.25-.24.45,0,.73.34,1.15.41.63.1,1.12-.36,1.83-.44a24.5,24.5,0,0,1,6.3.06c.45,0,.42-.51.91-.43,3.16.1,6.86.32,10.08-.4.84-.19,1.47.19,2.29.25a20.09,20.09,0,0,0,4.47-.47,22.42,22.42,0,0,0,3,.38c1.07,0,2-.86,3.09-.73,1.33.15,3.18-.09,4.7.36.33-.11.6-.29.91-.43,3.92-.15,7.37.72,11.23-.28,1.85.89,4.28-.32,6.42-.08,1.86.21,4.77-.11,7.11.05,3.13.21,5.79.25,9.05.17a12.86,12.86,0,0,1,1.95.12,34.57,34.57,0,0,0,4.36.23c1,0,2,.5,3,.52.68,0,1.4-.44,2.06-.44,1.87,0,3.68.53,5.5.07a3.31,3.31,0,0,0,1.72.12c3,1.17,7.37,0,10.55,1,3.95-.13,8.32.42,12.27.41a14.1,14.1,0,0,1,2.06-.16c.74.11,1.29.56,2,.54.3,0,.59-.3.91-.29,1.9.06,3.8.82,5.62.21,2.61.84,5.46.71,8,.74,3.57,0,7.16,1.08,10.67,1.12a15.59,15.59,0,0,1,4.7.5c1.17.43,2.53,0,3.67.23a20.19,20.19,0,0,0,2.53.67c.46,0,.91-.18,1.37-.16a8,8,0,0,1,2.64,1.08c.41.19.89.12,1.26.26.65.25,1.19.92,1.84,1.24,2.41,1.13,4.73,1.35,7.12,2.14.32.5,1,.5,1.5.82.26.4-.16.82.24,1.11,1.57.35,3,.92,4.48,1.34.06.44-.2.49-.11,1s.9-.09,1,.27c.07.68-.75.29-1,.57,1.11,1.11,3.5.63,4.48,1.9-1.22.51-2.28-.36-3.67-.1.21.82,1.05.85,1.16,1.8-.33.64-.57.85-.1,1.54-.63.26-.76,1.12-1.71,1a3.44,3.44,0,0,0,1.27,1.8c-.21.58-1.06-.08-1.6.3.2.87-.05,1.54.13,2.37-.33.2-.39.73-1,.57a1.24,1.24,0,0,1-.79,1c.11.71.92.55,1.27,1a6.2,6.2,0,0,1-2.86.59.83.83,0,0,0,.81.69,3.83,3.83,0,0,1-2.63.59c.47.54,1.18.32,1.39,1.38a4,4,0,0,1,3.68.93c-.61.6-.86,1.64-1.82,1.84.11.42.67.3.92.55-.15,1.34-1.36.41-2.06.72,1,1.21,2.88,1.22,3.8,2.46-.13.82-1,.71-1.83.72.24,1.09,1.34,1.54.71,2.92-.76.19-1.36.59-2.17.72.25.77,1.49.31,1.61,1.24-1.23.42-3.5.3-4.34,1.59.42,1.55,2.68.8,2.77,2.76-1-.34-1.53.16-2.17.59-.21.28.55.53.47,1.11-.73.28-1.52-.19-2.17.3,0,.82.93.54,1.38.82A1.49,1.49,0,0,1,287.48,52.8Zm1.85-39.22a.6.6,0,0,0-.35-.69C288.69,13.25,289.08,13.47,289.33,13.58ZM112.92,49.92c1,0,3.08.75,4.13,0C115.52,49.67,114.31,49.34,112.92,49.92Zm8.71,0c.15.19.69.23.69-.15C122.17,49.61,121.63,49.57,121.63,50Zm3.09,0c.27,0,.43.21.8.13A.42.42,0,0,0,124.73,49.91ZM276.92,51c.2.42,1.25.51,1.61.26C278,51.13,277.52,50.49,276.92,51Z"/></svg>