<svg id="Layer_1" data-name="Layer 1" xmlns="http://www.w3.org/2000/svg" xmlns:xlink="http://www.w3.org/1999/xlink" viewBox="0 0 50 50"><defs><style>.cls-1{fill:none;}.cls-2{clip-path:url(#clip-path);}.cls-3{fill:#4aa39c;}.cls-4{fill:#928e87;}</style><clipPath id="clip-path"><rect class="cls-1" x="1.25" y="3.68" width="46.69" height="41.64"/></clipPath></defs><title>icon_talk</title><g class="cls-2"><path class="cls-3" d="M47.42,9.43c0-.11,0-.21,0-.32a5.17,5.17,0,0,0-1-3.36,4.52,4.52,0,0,0-3.13-1.31H43c-4.7.13-9.39,0-14.08-.13H22.48A4.58,4.58,0,0,0,17.7,8.05a1.92,1.92,0,0,0,0,.36s0,.09,0,.14q-.35,4.61-.45,9.24-.05,2.36,0,4.72c0,1.63-.19,3.34.7,4.81a4.68,4.68,0,0,0,3.51,2l.21,0h.16c3-.28,6-.41,9-.43l.64.36,0,0a107.5,107.5,0,0,0,9.66,5.12,1.35,1.35,0,0,0,1.68-.4,1,1,0,0,0,.31-1,1,1,0,0,0-.1-.32l-1.51-3.92h1.16l.19,0a4.26,4.26,0,0,0,3.09-.6c1.76-1.3,1.75-3.76,1.78-5.71.06-2.79,0-5.59-.15-8.38-.06-1.54-.13-3.07-.18-4.6ZM45.1,24.54A2.39,2.39,0,0,1,44.5,26c-.69.5-1.77.18-2.55.16s-1.39,0-2,0a1.37,1.37,0,0,0-.48.09,1.15,1.15,0,0,0-1.09,1.58l1.11,2.88c-2.07-1-4.12-2.13-6.11-3.32a1.09,1.09,0,0,0-.24-.17c-.3-.15-.59-.32-.88-.49a1.19,1.19,0,0,0-1-.43c-3.18,0-6.35.15-9.52.44H21.6a2.07,2.07,0,0,1-1.07-.27,1.62,1.62,0,0,1-.59-.81,1.51,1.51,0,0,0-.12-.26,1.4,1.4,0,0,0,0-.27q-.2-8.28.44-16.53a1.94,1.94,0,0,1,2.2-1.62h6c2.8,0,5.58.23,8.38.25,1.42,0,2.83-.09,4.25-.15.93,0,2.23-.18,3,.39,1,.68.73,2.21.77,3.24q.08,2.32.15,4.65c0,1.55.07,3.1.07,4.65,0,.79,0,1.58,0,2.36a21.34,21.34,0,0,1,0,2.21Zm0,0"/><path class="cls-4" d="M28.58,31.25s0,3.1,0,3.12a1.71,1.71,0,0,0-.13.48c0-.21-.05.19-.05.19l0,.1,0,.07s-.11.16-.12.19l-.15.15a1.83,1.83,0,0,0-.19.13l-.06,0-.1,0a1.44,1.44,0,0,1-.63.09H17.78a1.15,1.15,0,0,0-.9.39,1.32,1.32,0,0,0-.35.22q-1.7,1.52-3.31,3.13c.15-.68.3-1.36.42-2.05.36-2.05-2.21-1.5-3.32-1.47s-3,.49-4.24.17c-.39-.1-1.31-.61-1.33-1.09C4.48,30,4.13,24.85,3.88,19.71c0,0,0,0,0,0a1.45,1.45,0,0,0,0-.3,1.88,1.88,0,0,1,0-1.27c.68-1.23,3-.85,4.15-.75,2.06.17,4.11.16,6.17.24,1.6.06,1.6-2.42,0-2.48C12.12,15,10.06,15,8,15s-4.73-.23-6.21,1.75a3.86,3.86,0,0,0-.38,3.13c.25,5.12.6,10.23.86,15.35a1.18,1.18,0,0,0,0,.25,1.29,1.29,0,0,0,.13.62C4,39.26,8,38.64,10.92,38.53a43.1,43.1,0,0,1-1.41,5.06,1,1,0,0,0,.22,1.13,1.14,1.14,0,0,0,1.86.2,90.16,90.16,0,0,1,6.58-6.59h8.93a4.21,4.21,0,0,0,2.69-1,3.62,3.62,0,0,0,1.14-2.43,1.22,1.22,0,0,0,.14-.57v-3.1a1.24,1.24,0,0,0-2.48,0Zm0,0"/></g></svg>