<svg id="Layer_1" data-name="Layer 1" xmlns="http://www.w3.org/2000/svg" viewBox="0 0 300 65.81"><defs><style>.cls-1{fill:#fff;fill-rule:evenodd;}</style></defs><title>title-sketchy-white-2</title><path class="cls-1" d="M213.76,30.18c-.07.64,1.25.71,1.24.07C214.69,30.12,214.07,29.9,213.76,30.18Z"/><path class="cls-1" d="M53.43,46.66c.9.5,1.7-.2,2.77,0C56,45.67,53.7,45.83,53.43,46.66Z"/><path class="cls-1" d="M51.22,46.54a.88.88,0,0,0,1.26-.24A.69.69,0,0,0,51.22,46.54Z"/><path class="cls-1" d="M-1-2V67.07H303V-2ZM294,52.22c-1.25,1.7-3,.87-4.89,1-1,0-2,.48-2.93.6-1.64.21-3.28-.17-5-.13-3.83.11-8,.26-11.65.42-5.52.25-10.78-.15-16.19,0-6.39.19-12.59.8-19.13.77a159.25,159.25,0,0,1-16-1.06c-4.36-.46-8.78.08-13.16.18-8.31.19-16.6,2.16-24.57,1.69-8.44-.5-17.69-1.19-26.25-1-1.67,0-3.34.5-5,.49-7.09-.07-14.49,1-21.48.63-11.19-.61-22.6-.53-34.58-.41-7.82.08-15.71.19-23.38-.24-5-.28-9.92-1-14.9-1s-10,.16-15,.23c-2.38,0-4.83.4-7.21.36-4.88-.09-9.78.31-15,.23-2.83,0-5.48-.18-8.3-.16-1.58,0-4.35,1-5.25-.14s.54-1.23.29-3.21c.29-.66,1-.87,1.31-1.46.17-1.77-.19-3.51.49-4.73-1.25-1.15-.55-2.28-.37-4,.1-1-.22-2.2-.13-3.23s.36-2.62.6-4c.09-.53.45-1.1.49-1.66.2-2.78-1.21-5.84-.88-8,.11-.74.76-1.58.8-2.26,0-.48-.41-1.25-.46-2-.12-2,1-5.07.76-7.49C7,12,6.66,11.47,6.62,11c-.69-8.43,7.79-6.8,14.54-6.25a85.6,85.6,0,0,0,12.19-.23c1.24-.09,2.56-.2,3.75-.25,3.13-.13,5.93.22,8.3,0a17.12,17.12,0,0,0,2-.66c1.87-.24,4.34.31,6.63.37,11.51.34,25,1.64,36.34,1.28,4.58-.15,8.76.08,13,0A41.06,41.06,0,0,1,108.2,5c2,.15,4-.23,6-.13,3.24.17,6.46.2,9.82.25,5.1.07,10.13.59,14.81.06,3.32-.37,7.11-.19,10.95-.31,2.21-.07,4.45-.54,6.67-.55,8.88,0,18.55,1.23,28.05,1,5.23-.15,10.6-1,15.7-1.42a101.61,101.61,0,0,1,19.79,0,116.72,116.72,0,0,0,22.55.35c10.72-.87,22.89-.31,33.11-.75,2.11-.09,4.25.24,6.23,0s4.09-1.7,6.24-.26c.34.6-.36.75-.34,1.36s.83,1.68.85,2.51a8.61,8.61,0,0,1-.67,2.57,6.16,6.16,0,0,1-.8,2.26c3.36.57,2.13,4.66,2.28,7.66-.09.72.78.48.78,1.12-.63,1.33.75,2.85.77,4.35,0,.47-.39.93-.49,1.66-.17,1.26.35,2.45-.82,2.87a15.18,15.18,0,0,1,2,4.26c.13.69-.08,1.45,0,2.15s.82,1.46,1,2.21c.27,1.06-.15,2.09.56,2.8-.85,1.77.73,4.91.94,6.66C294.38,49.27,293.84,50.76,294,52.22Z"/><path class="cls-1" d="M216.94,30.36c-.11,0-.17.12-.15.3,2.28.53,5.72,1.76,7.59.58A29.25,29.25,0,0,0,216.94,30.36Z"/></svg>