<svg id="Layer_1" data-name="Layer 1" xmlns="http://www.w3.org/2000/svg" xmlns:xlink="http://www.w3.org/1999/xlink" viewBox="0 0 50 50"><defs><style>.cls-1{fill:none;}.cls-2{clip-path:url(#clip-path);}.cls-3{fill:#99cd73;}.cls-4{fill:#928e87;}.cls-5{clip-path:url(#clip-path-2);}.cls-6{fill:#4aa39c;}</style><clipPath id="clip-path"><rect class="cls-1" x="5.26" y="5.12" width="41.14" height="39.46"/></clipPath><clipPath id="clip-path-2"><rect class="cls-1" x="11.99" y="14.73" width="18.33" height="12.06"/></clipPath></defs><title>icon_portfolio</title><g class="cls-2"><path class="cls-3" d="M34.28,36a1.75,1.75,0,0,0,1.56-1.54,1.74,1.74,0,0,0,.1-.55c0-8.61.64-17.2.88-25.81,0,0,0,0,0-.05a1.72,1.72,0,0,0-1.43-2.48c-8.82-.42-17.64-.44-26.47-.44A1.59,1.59,0,0,0,7.33,7a1.74,1.74,0,0,0-.07.44C7,16.29,6.15,25.1,5.27,33.91a1.4,1.4,0,0,0,1.6,1.57,1.73,1.73,0,0,0,.49.08c9,.07,17.94,1.44,26.91.44ZM8.74,32.28c.79-7.94,1.52-15.87,1.79-23.84,7.65,0,15.31.05,23,.37-.24,8-.77,16-.85,24-8,.64-15.92-.41-23.9-.58Zm0,0"/></g><path class="cls-4" d="M44.33,14.11h0l-.17,0H39.43a1.69,1.69,0,0,0,0,3.38h3.12a171.23,171.23,0,0,0-2.06,23c-4,.13-8.27.18-13.83.18l-7.14,0-4.79,0a9.39,9.39,0,0,0-.21-1.48,1.67,1.67,0,0,0-1.65-1.25,1.58,1.58,0,0,0-.43.06A1.7,1.7,0,0,0,11.26,40a9.48,9.48,0,0,1,.14,2.05v.24a1.57,1.57,0,0,0,.44,1.14l.09.09a1.59,1.59,0,0,0,1.15.46l6.61,0L27,44c6.15,0,10.84-.07,15.2-.24a1.66,1.66,0,0,0,1.63-1.65,1.72,1.72,0,0,0,.06-.43A168.1,168.1,0,0,1,46.14,16.2a1.73,1.73,0,0,0-.39-1.41,2,2,0,0,0-1.42-.68Zm0,0"/><g class="cls-5"><path class="cls-4" d="M29.85,15.58a.63.63,0,0,0-.53-.56.61.61,0,0,0-.19,0c-5.43-.24-10.86-.35-16.29-.12a.59.59,0,0,0-.57.57.67.67,0,0,0,0,.15c-.18,3.29-.29,6.59-.24,9.88a.66.66,0,0,0,0,.18.63.63,0,0,0,.57.72,77.5,77.5,0,0,0,17.23-.2.48.48,0,0,0,.43-.56.62.62,0,0,0,0-.14c-.11-3.3-.08-6.6-.42-9.88ZM13.2,25.21c0-3.06.06-6.11.22-9.17,5.1-.19,10.2-.09,15.29.12.27,3,.26,5.93.36,8.9a75.71,75.71,0,0,1-15.86.14Zm0,0"/></g><path class="cls-6" d="M28.27,23.54a11.71,11.71,0,0,0-2.67-3.24.62.62,0,0,0-.78,0l-.13.08c-.57.44-1.13.9-1.68,1.36a17.85,17.85,0,0,0-1.66-2.56.6.6,0,0,0-.85,0,33.53,33.53,0,0,0-3.39,4.55.52.52,0,0,0-.06.5.6.6,0,0,0,.58.64c2,.11,4,.06,6,0h0c1.38,0,2.75,0,4.13-.06a.61.61,0,0,0,.56-.77.55.55,0,0,0,0-.49Zm-9.71.16a31.36,31.36,0,0,1,2.33-3.17,20.36,20.36,0,0,1,1.78,3.16c-1.37,0-2.74.05-4.11,0Zm5.41,0c-.13-.28-.26-.57-.4-.85q.79-.66,1.59-1.3a10.74,10.74,0,0,1,1.76,2.11c-1,0-2,0-3,0Zm0,0"/><path class="cls-3" d="M18.13,19.06a1.68,1.68,0,0,0-.41-1.47A1.7,1.7,0,0,0,16.17,17a1.73,1.73,0,0,0-1.26,2.44,2.05,2.05,0,0,0,2.34.74,1.63,1.63,0,0,0,.87-1.13Zm-1.2-.2a.45.45,0,0,1-.78,0,.53.53,0,0,1-.1-.33c0-.81,1.22-.25.88.31Zm0,0"/></svg>